<svg width="224" height="224" viewBox="0 0 224 224" fill="none" xmlns="http://www.w3.org/2000/svg">
<circle cx="111.542" cy="111.542" r="111.542" fill="#6CFF95"/>
<path fill-rule="evenodd" clip-rule="evenodd" d="M83.2393 80.8517C84.8381 79.6871 86.807 79 88.9364 79H100.596C105.945 79 110.282 83.3367 110.282 88.6863V100.346C110.282 105.695 105.945 110.032 100.596 110.032H97.5262L66.7874 140.771C65.0126 142.996 62.2778 144.423 59.21 144.423H47.5505C42.201 144.423 37.8643 140.086 37.8643 134.736V123.077C37.8643 117.727 42.201 113.391 47.5505 113.391H50.2816L81.3428 82.3295C81.925 81.7473 82.5629 81.2547 83.2393 80.8517ZM154.981 123.029C154.981 117.679 159.318 113.342 164.667 113.342H176.327C181.676 113.342 186.013 117.679 186.013 123.029V134.688C186.013 140.038 181.676 144.374 176.327 144.374H164.667C159.318 144.374 154.981 140.038 154.981 134.688V123.029ZM149.593 79C147.473 79 145.512 79.6813 143.917 80.8369C143.231 81.2426 142.585 81.7401 141.995 82.3295L110.934 113.391H108.203C102.853 113.391 98.5167 117.727 98.5167 123.077V134.736C98.5167 140.086 102.853 144.423 108.203 144.423H119.862C122.93 144.423 125.665 142.996 127.44 140.771L158.179 110.032H161.253C166.602 110.032 170.939 105.695 170.939 100.346V88.6863C170.939 83.3367 166.602 79 161.253 79H149.593Z" fill="black"/>
</svg>
