<svg width="1105" height="264" viewBox="0 0 1105 264" fill="none" xmlns="http://www.w3.org/2000/svg">
<circle cx="111.542" cy="111.542" r="111.542" fill="#6CFF95"/>
<path fill-rule="evenodd" clip-rule="evenodd" d="M83.2393 80.8517C84.8381 79.6871 86.807 79 88.9364 79H100.596C105.945 79 110.282 83.3367 110.282 88.6863V100.346C110.282 105.695 105.945 110.032 100.596 110.032H97.5262L66.7874 140.771C65.0126 142.996 62.2778 144.423 59.21 144.423H47.5505C42.201 144.423 37.8643 140.086 37.8643 134.736V123.077C37.8643 117.727 42.201 113.391 47.5505 113.391H50.2816L81.3428 82.3295C81.925 81.7473 82.5629 81.2547 83.2393 80.8517ZM154.981 123.029C154.981 117.679 159.318 113.342 164.667 113.342H176.327C181.676 113.342 186.013 117.679 186.013 123.029V134.688C186.013 140.038 181.676 144.374 176.327 144.374H164.667C159.318 144.374 154.981 140.038 154.981 134.688V123.029ZM149.593 79C147.473 79 145.512 79.6813 143.917 80.8369C143.231 81.2426 142.585 81.7401 141.995 82.3295L110.934 113.391H108.203C102.853 113.391 98.5167 117.727 98.5167 123.077V134.736C98.5167 140.086 102.853 144.423 108.203 144.423H119.862C122.93 144.423 125.665 142.996 127.44 140.771L158.179 110.032H161.253C166.602 110.032 170.939 105.695 170.939 100.346V88.6863C170.939 83.3367 166.602 79 161.253 79H149.593Z" fill="black"/>
<path d="M434.627 44.0306C435.612 46.0066 436.269 47.818 436.433 49.3C436.598 50.9466 436.762 53.252 436.762 56.216V166.049C436.762 175.106 434.298 180.54 429.207 182.022C426.743 182.846 423.623 183.175 419.681 183.175C415.739 183.175 412.783 182.846 410.648 182.187C408.349 181.528 406.706 180.705 405.557 179.882C404.407 178.894 403.422 177.576 402.765 175.93C402.108 173.624 401.779 170.331 401.779 165.72V99.359C398.495 103.476 393.732 109.898 387.326 118.79C381.085 127.682 376.979 133.281 375.337 135.421C373.695 137.727 372.381 139.209 371.724 140.032C371.067 140.855 369.425 142.008 366.961 143.655C364.333 145.137 361.705 145.96 358.749 145.96C355.793 145.96 353.165 145.301 350.701 143.819C348.238 142.502 346.596 141.02 345.446 139.703L343.804 137.562C341.176 134.269 335.92 127.353 328.201 116.484C320.482 105.616 316.212 100.018 315.555 99.1943V166.049C315.555 169.013 315.555 171.319 315.226 172.801C315.062 174.283 314.405 175.93 313.42 177.906C311.449 181.528 306.357 183.175 297.981 183.175C289.605 183.175 285.007 181.364 283.036 177.906C282.05 176.094 281.393 174.283 281.229 172.801C281.065 171.154 280.901 168.849 280.901 165.72V55.8867C280.901 52.9227 280.901 50.6173 281.229 49.1353C281.393 47.6533 282.05 45.8419 283.036 43.8659C285.171 40.4079 290.262 38.7612 298.638 38.7612C302.251 38.7612 305.208 39.2552 307.836 40.0786C310.463 40.9019 312.106 41.8899 312.927 42.7133L314.077 43.8659L358.749 102.817C381.085 73.1768 396.031 53.5813 403.422 44.1953C405.721 40.5726 410.977 38.9259 419.353 38.9259C427.729 38.9259 432.82 40.7372 434.627 44.1953V44.0306Z" fill="black"/>
<path d="M487.501 149.013H533.709C536.686 149.013 539.001 149.013 540.489 149.344C541.977 149.509 543.796 150.17 545.78 151.162C549.417 152.98 551.071 158.104 551.071 166.7C551.071 175.956 548.591 181.411 543.796 182.898C541.481 183.725 538.174 184.056 533.544 184.056H469.974C460.714 184.056 455.258 181.576 453.77 176.452C452.943 174.303 452.612 170.997 452.612 166.369V56.1172C452.612 49.3401 453.935 44.7118 456.415 42.3977C458.896 39.9183 463.691 38.7612 470.635 38.7612H533.875C536.851 38.7612 539.166 38.7612 540.654 39.0918C542.142 39.2571 543.961 39.9183 545.945 40.9101C549.583 42.7283 551.236 47.8525 551.236 56.4478C551.236 65.7043 548.756 71.159 543.961 72.6467C541.646 73.4732 538.339 73.8038 533.709 73.8038H487.831V93.8045H518.378C521.355 93.8045 523.669 93.8045 525.158 94.1351C526.646 94.3003 528.464 94.9615 530.449 95.9533C534.086 97.7715 535.74 102.896 535.74 111.491C535.74 120.748 533.26 126.202 528.134 127.69C525.819 128.516 522.512 128.847 517.882 128.847H487.831V148.848L487.501 149.013Z" fill="black"/>
<path d="M573.48 38.7612H648.034C652.313 38.7612 655.276 39.256 657.251 40.2455C659.226 41.235 660.542 42.7193 661.201 44.8633C661.859 47.0072 662.188 49.8109 662.188 53.1092C662.188 56.4076 661.859 59.2113 661.201 61.3552C660.542 63.3343 659.39 64.8185 657.909 65.6431C655.605 66.7976 652.149 67.4573 647.869 67.4573H627.791V166.904C627.791 169.872 627.791 172.181 627.462 173.666C627.298 175.15 626.639 176.799 625.652 178.778C624.664 180.757 622.854 182.076 620.385 182.901C617.916 183.726 614.625 184.056 610.51 184.056C606.396 184.056 603.104 183.726 600.8 182.901C598.331 182.076 596.685 180.757 595.698 178.778C594.71 176.799 594.052 175.15 593.887 173.666C593.723 172.181 593.558 169.872 593.558 166.904V67.4573H573.316C569.036 67.4573 566.074 66.9625 564.099 65.973C562.124 64.9835 560.807 63.4992 560.149 61.3552C559.491 59.2113 559.161 56.4076 559.161 53.1092C559.161 49.8109 559.491 47.0072 560.149 44.8633C560.807 42.8842 561.959 41.3999 563.441 40.5753C565.745 39.4209 569.201 38.7612 573.48 38.7612Z" fill="black"/>
<path d="M862.739 37C882.206 37 899.199 44.0708 913.553 58.0481C927.906 72.1898 935.165 89.6202 935.165 110.504C935.165 131.388 928.236 149.147 914.543 163.782C900.849 178.417 883.856 185.817 863.894 185.817C843.931 185.817 826.773 178.581 812.75 164.111C798.726 149.64 791.632 132.374 791.632 112.477C791.632 101.624 793.612 91.2646 797.571 81.7272C801.531 72.1898 806.81 64.1323 813.41 57.7192C820.009 51.3061 827.598 46.2085 836.177 42.5909C844.756 38.9733 853.665 37 862.739 37ZM826.773 111.326C826.773 123.001 830.567 132.539 838.157 139.774C845.746 147.009 854.16 150.791 863.564 150.791C872.968 150.791 881.382 147.174 888.971 140.103C896.56 133.032 900.189 123.494 900.189 111.491C900.189 99.4865 896.395 89.9491 888.806 82.7138C881.217 75.4785 872.803 71.8609 863.399 71.8609C853.995 71.8609 845.581 75.4785 837.992 82.8783C830.403 90.1135 826.773 99.6509 826.773 111.326Z" fill="black"/>
<path d="M1102.1 44.0306C1103.08 46.0066 1103.74 47.818 1103.91 49.3C1104.07 50.9466 1104.23 53.252 1104.23 56.216V166.049C1104.23 175.106 1101.77 180.54 1096.68 182.022C1094.22 182.846 1091.1 183.175 1087.15 183.175C1083.21 183.175 1080.26 182.846 1078.12 182.187C1075.82 181.528 1074.18 180.705 1073.03 179.882C1071.88 178.894 1070.89 177.576 1070.24 175.93C1069.58 173.624 1069.25 170.331 1069.25 165.72V99.359C1065.97 103.476 1061.2 109.898 1054.8 118.79C1048.56 127.682 1044.45 133.281 1042.81 135.421C1041.17 137.727 1039.85 139.209 1039.2 140.032C1038.54 140.855 1036.9 142.008 1034.43 143.655C1031.81 145.137 1029.18 145.96 1026.22 145.96C1023.27 145.96 1020.64 145.301 1018.17 143.819C1015.71 142.502 1014.07 141.02 1012.92 139.703L1011.28 137.562C1008.65 134.269 1003.39 127.353 995.673 116.484C987.954 105.616 983.684 100.018 983.027 99.1943V166.049C983.027 169.013 983.027 171.319 982.699 172.801C982.534 174.283 981.877 175.93 980.892 177.906C978.921 181.528 973.83 183.175 965.454 183.175C957.078 183.175 952.479 181.364 950.508 177.906C949.523 176.094 948.866 174.283 948.702 172.801C948.537 171.154 948.373 168.849 948.373 165.72V55.8867C948.373 52.9227 948.373 50.6173 948.702 49.1353C948.866 47.6533 949.523 45.8419 950.508 43.8659C952.479 40.4079 957.57 38.7612 965.946 38.7612C969.56 38.7612 972.516 39.2552 975.144 40.0786C977.772 40.9019 979.414 41.8899 980.235 42.7133L981.385 43.8659L1026.06 102.817C1048.39 73.1768 1063.34 53.5813 1070.73 44.1953C1073.03 40.5726 1078.28 38.9259 1086.66 38.9259C1095.04 38.9259 1100.13 40.7372 1101.93 44.1953L1102.1 44.0306Z" fill="black"/>
<path fill-rule="evenodd" clip-rule="evenodd" d="M711.291 143.902H707.654V166.314C707.654 169.28 707.654 171.588 707.325 173.071C707.16 174.554 706.502 176.367 705.514 178.344C703.703 181.97 698.599 183.618 690.039 183.618C680.82 183.618 675.387 181.146 673.905 176.367C673.082 174.059 672.753 170.764 672.753 166.149V56.0649C672.753 53.0986 672.753 50.7914 673.082 49.3082C673.247 47.8251 673.905 46.0123 674.893 44.0347C676.704 40.4092 681.807 38.7612 690.368 38.7612H733.007C744.531 38.7612 755.89 43.0459 766.756 51.4506C772.024 55.5705 776.304 61.0088 779.761 68.0951C783.218 75.0165 784.865 82.9268 784.865 91.4962C784.865 104.973 780.787 116.409 772.632 125.557C768.53 130.157 763.119 134.433 756.673 137.701C762.429 143.008 768.131 148.243 771.812 151.562L771.661 151.629C775.407 155.195 777.714 157.956 778.517 159.764C780.524 164.282 778.502 169.868 772.535 176.306C769.359 179.7 766.751 181.94 764.344 183.01C761.936 184.079 759.863 184.278 757.891 183.893C755.918 183.507 754.329 182.769 753.042 181.899C750.987 180.293 742.571 172.45 727.78 158.665L727.777 158.663C727.515 158.418 721.251 152.813 714.94 147.167C713.711 146.067 712.479 144.965 711.291 143.902ZM707.654 108.8H732.842C736.629 108.8 740.415 107.317 744.366 104.515C748.153 101.549 750.128 97.2641 750.128 91.4962C750.128 85.7284 748.153 81.2788 744.366 78.3125C740.58 75.3461 736.629 73.863 732.513 73.863H707.654V108.8Z" fill="black"/>
<path d="M291.454 253H281.168V224.411H291.18C299.628 224.411 305.455 230.238 305.455 238.764C305.455 247.173 299.745 253 291.454 253ZM290.711 229.026H286.174V248.385H290.984C296.694 248.385 300.175 244.709 300.175 238.764C300.175 232.702 296.616 229.026 290.711 229.026ZM318.448 253.508C312.699 253.508 308.671 249.324 308.671 243.34C308.671 237.278 312.621 233.093 318.292 233.093C324.08 233.093 327.756 236.965 327.756 242.988V244.435L313.208 244.474C313.56 247.877 315.359 249.597 318.527 249.597C321.147 249.597 322.868 248.581 323.415 246.742H327.835C327.013 250.966 323.494 253.508 318.448 253.508ZM318.331 237.004C315.515 237.004 313.794 238.529 313.325 241.424H323.024C323.024 238.764 321.186 237.004 318.331 237.004ZM330.48 247.134H335.017C335.056 248.815 336.307 249.871 338.498 249.871C340.727 249.871 341.939 248.972 341.939 247.564C341.939 246.586 341.431 245.882 339.71 245.491L336.229 244.67C332.748 243.887 331.067 242.245 331.067 239.155C331.067 235.362 334.274 233.093 338.732 233.093C343.073 233.093 346.007 235.596 346.046 239.351H341.509C341.47 237.708 340.375 236.652 338.537 236.652C336.659 236.652 335.564 237.513 335.564 238.96C335.564 240.055 336.425 240.759 338.067 241.15L341.548 241.971C344.794 242.714 346.437 244.2 346.437 247.173C346.437 251.084 343.112 253.508 338.341 253.508C333.531 253.508 330.48 250.927 330.48 247.134ZM352.846 229.808C351.204 229.808 349.913 228.517 349.913 226.914C349.913 225.31 351.204 224.059 352.846 224.059C354.411 224.059 355.701 225.31 355.701 226.914C355.701 228.517 354.411 229.808 352.846 229.808ZM350.461 253V233.68H355.232V253H350.461ZM359.458 242.91C359.458 237.278 363.134 233.054 368.649 233.054C371.543 233.054 373.811 234.267 374.945 236.339L375.219 233.68H379.638V252.022C379.638 258.475 375.766 262.504 369.509 262.504C363.955 262.504 360.162 259.336 359.575 254.173H364.347C364.659 256.676 366.576 258.162 369.509 258.162C372.794 258.162 374.906 256.09 374.906 252.883V249.676C373.694 251.475 371.308 252.609 368.531 252.609C363.056 252.609 359.458 248.502 359.458 242.91ZM364.268 242.792C364.268 246.039 366.341 248.463 369.47 248.463C372.755 248.463 374.789 246.156 374.789 242.792C374.789 239.507 372.794 237.239 369.47 237.239C366.302 237.239 364.268 239.625 364.268 242.792ZM389.739 253H384.967V233.68H389.387L389.778 236.183C390.99 234.227 393.337 233.093 395.957 233.093C400.807 233.093 403.31 236.105 403.31 241.111V253H398.538V242.245C398.538 238.999 396.935 237.434 394.471 237.434C391.538 237.434 389.739 239.468 389.739 242.597V253ZM426.908 241.736L417.248 224.411H422.841L428.473 234.814C428.903 235.596 429.177 236.222 429.49 236.926C429.842 236.222 429.998 235.753 430.506 234.814L436.099 224.411H441.535L431.914 241.736V253H426.908V241.736ZM439.584 243.301C439.584 237.278 443.925 233.132 449.909 233.132C455.893 233.132 460.234 237.278 460.234 243.301C460.234 249.324 455.893 253.469 449.909 253.469C443.925 253.469 439.584 249.324 439.584 243.301ZM444.355 243.301C444.355 246.821 446.624 249.206 449.909 249.206C453.194 249.206 455.463 246.821 455.463 243.301C455.463 239.781 453.194 237.395 449.909 237.395C446.624 237.395 444.355 239.781 444.355 243.301ZM477.05 233.68H481.822V253H477.402L477.05 250.419C475.877 252.257 473.374 253.508 470.793 253.508C466.334 253.508 463.714 250.497 463.714 245.765V233.68H468.485V244.083C468.485 247.759 469.932 249.245 472.592 249.245C475.603 249.245 477.05 247.486 477.05 243.809V233.68ZM499.265 233.602V238.021H497.505C494.063 238.021 491.912 239.859 491.912 243.614V253H487.141V233.719H491.639L491.912 236.535C492.734 234.619 494.572 233.328 497.153 233.328C497.818 233.328 498.483 233.406 499.265 233.602ZM519.528 224.411V253H514.522V224.411H519.528ZM530.324 253H525.552V233.68H529.972L530.363 236.183C531.575 234.227 533.922 233.093 536.542 233.093C541.392 233.093 543.895 236.105 543.895 241.111V253H539.123V242.245C539.123 238.999 537.52 237.434 535.056 237.434C532.123 237.434 530.324 239.468 530.324 242.597V253ZM547.84 243.301C547.84 237.317 551.79 233.093 557.5 233.093C562.779 233.093 566.377 236.026 566.886 240.68H562.115C561.567 238.49 559.964 237.356 557.695 237.356C554.645 237.356 552.611 239.664 552.611 243.301C552.611 246.938 554.488 249.206 557.539 249.206C559.924 249.206 561.606 248.033 562.115 245.921H566.925C566.338 250.419 562.584 253.508 557.539 253.508C551.672 253.508 547.84 249.441 547.84 243.301ZM579.511 253.508C573.762 253.508 569.733 249.324 569.733 243.34C569.733 237.278 573.683 233.093 579.354 233.093C585.142 233.093 588.819 236.965 588.819 242.988V244.435L574.27 244.474C574.622 247.877 576.421 249.597 579.589 249.597C582.209 249.597 583.93 248.581 584.478 246.742H588.897C588.076 250.966 584.556 253.508 579.511 253.508ZM579.393 237.004C576.577 237.004 574.857 238.529 574.387 241.424H584.086C584.086 238.764 582.248 237.004 579.393 237.004ZM597.8 253H593.029V233.68H597.448L597.839 236.183C599.051 234.227 601.398 233.093 604.018 233.093C608.868 233.093 611.371 236.105 611.371 241.111V253H606.6V242.245C606.6 238.999 604.996 237.434 602.532 237.434C599.599 237.434 597.8 239.468 597.8 242.597V253ZM623.02 253H618.249V237.669H614.534V233.68H618.249V227.657H623.02V233.68H626.775V237.669H623.02V253ZM632.518 229.808C630.875 229.808 629.585 228.517 629.585 226.914C629.585 225.31 630.875 224.059 632.518 224.059C634.082 224.059 635.373 225.31 635.373 226.914C635.373 228.517 634.082 229.808 632.518 229.808ZM630.132 253V233.68H634.904V253H630.132ZM645.7 253L638.034 233.68H643.118L646.482 242.558C647.303 244.865 647.968 246.86 648.203 247.916C648.476 246.703 649.18 244.67 650.002 242.558L653.521 233.68H658.449L650.393 253H645.7ZM669.272 253.508C663.523 253.508 659.494 249.324 659.494 243.34C659.494 237.278 663.444 233.093 669.115 233.093C674.903 233.093 678.58 236.965 678.58 242.988V244.435L664.031 244.474C664.383 247.877 666.182 249.597 669.35 249.597C671.97 249.597 673.691 248.581 674.239 246.742H678.658C677.837 250.966 674.317 253.508 669.272 253.508ZM669.154 237.004C666.338 237.004 664.618 238.529 664.148 241.424H673.847C673.847 238.764 672.009 237.004 669.154 237.004ZM681.303 247.134H685.84C685.879 248.815 687.131 249.871 689.321 249.871C691.55 249.871 692.762 248.972 692.762 247.564C692.762 246.586 692.254 245.882 690.533 245.491L687.052 244.67C683.572 243.887 681.89 242.245 681.89 239.155C681.89 235.362 685.097 233.093 689.555 233.093C693.897 233.093 696.83 235.596 696.869 239.351H692.332C692.293 237.708 691.198 236.652 689.36 236.652C687.483 236.652 686.388 237.513 686.388 238.96C686.388 240.055 687.248 240.759 688.891 241.15L692.371 241.971C695.617 242.714 697.26 244.2 697.26 247.173C697.26 251.084 693.936 253.508 689.164 253.508C684.354 253.508 681.303 250.927 681.303 247.134ZM718.787 253H714.015V237.669H710.3V233.68H714.015V227.657H718.787V233.68H722.541V237.669H718.787V253ZM724.573 243.301C724.573 237.278 728.915 233.132 734.898 233.132C740.882 233.132 745.223 237.278 745.223 243.301C745.223 249.324 740.882 253.469 734.898 253.469C728.915 253.469 724.573 249.324 724.573 243.301ZM729.345 243.301C729.345 246.821 731.613 249.206 734.898 249.206C738.184 249.206 740.452 246.821 740.452 243.301C740.452 239.781 738.184 237.395 734.898 237.395C731.613 237.395 729.345 239.781 729.345 243.301ZM763.497 253H758.295L768.62 224.411H773.743L784.068 253H778.788L776.481 246.39H765.804L763.497 253ZM770.536 232.937L767.29 242.167H775.034L771.749 232.937C771.514 232.194 771.24 231.333 771.162 230.747C771.045 231.294 770.81 232.155 770.536 232.937ZM792.894 253H788.044V224.411H792.894L802.124 247.173L811.353 224.411H816.281V253H811.432V244.2C811.432 238.451 811.432 236.77 811.705 234.736L804.431 253H799.816L792.581 234.775C792.855 236.496 792.894 239.194 792.894 242.753V253ZM827.849 253H823V224.411H827.849L837.079 247.173L846.309 224.411H851.237V253H846.387V244.2C846.387 238.451 846.387 236.77 846.661 234.736L839.387 253H834.772L827.537 234.775C827.81 236.496 827.849 239.194 827.849 242.753V253ZM857.252 261.956V233.68H861.671L861.984 236.613C863.157 234.384 865.699 233.093 868.632 233.093C874.069 233.093 877.667 237.043 877.667 243.105C877.667 249.128 874.382 253.508 868.632 253.508C865.738 253.508 863.235 252.374 862.023 250.419V261.956H857.252ZM862.062 243.34C862.062 246.821 864.213 249.206 867.498 249.206C870.862 249.206 872.856 246.782 872.856 243.34C872.856 239.898 870.862 237.434 867.498 237.434C864.213 237.434 862.062 239.859 862.062 243.34ZM886.667 253H881.935V223.903H886.667V253ZM894.449 229.808C892.807 229.808 891.516 228.517 891.516 226.914C891.516 225.31 892.807 224.059 894.449 224.059C896.014 224.059 897.304 225.31 897.304 226.914C897.304 228.517 896.014 229.808 894.449 229.808ZM892.064 253V233.68H896.835V253H892.064ZM900.239 233.68H903.016V231.333C903.016 226.093 905.793 223.903 909.978 223.903C910.721 223.903 911.62 223.942 912.442 224.098V228.165H910.76C908.335 228.165 907.748 229.417 907.748 231.333V233.68H912.363V237.669H907.748V253H903.016V237.669H900.239V233.68ZM914.118 261.956V257.967H916.973C918.85 257.967 920.024 257.537 920.845 255.268L921.392 253.821L913.61 233.68H918.655L923.622 247.759L928.862 233.68H933.79L924.326 257.302C922.879 260.9 920.845 262.386 917.677 262.386C916.347 262.386 915.174 262.23 914.118 261.956ZM953.534 224.411V248.385H965.501V253H948.528V224.411H953.534ZM971.645 229.808C970.002 229.808 968.712 228.517 968.712 226.914C968.712 225.31 970.002 224.059 971.645 224.059C973.209 224.059 974.5 225.31 974.5 226.914C974.5 228.517 973.209 229.808 971.645 229.808ZM969.259 253V233.68H974.03V253H969.259ZM978.217 243.105C978.217 237.043 981.815 233.093 987.251 233.093C990.185 233.093 992.727 234.384 993.9 236.613L994.213 233.68H998.593V261.956H993.861V250.419C992.648 252.374 990.106 253.508 987.251 253.508C981.502 253.508 978.217 249.128 978.217 243.105ZM982.988 243.34C982.988 246.782 985.022 249.206 988.346 249.206C991.671 249.206 993.822 246.821 993.822 243.34C993.822 239.859 991.671 237.434 988.346 237.434C985.022 237.434 982.988 239.898 982.988 243.34ZM1017.06 233.68H1021.83V253H1017.41L1017.06 250.419C1015.89 252.257 1013.38 253.508 1010.8 253.508C1006.34 253.508 1003.72 250.497 1003.72 245.765V233.68H1008.49V244.083C1008.49 247.759 1009.94 249.245 1012.6 249.245C1015.61 249.245 1017.06 247.486 1017.06 243.809V233.68ZM1029.53 229.808C1027.89 229.808 1026.6 228.517 1026.6 226.914C1026.6 225.31 1027.89 224.059 1029.53 224.059C1031.1 224.059 1032.39 225.31 1032.39 226.914C1032.39 228.517 1031.1 229.808 1029.53 229.808ZM1027.15 253V233.68H1031.92V253H1027.15ZM1045.18 253.508C1039.59 253.508 1036.11 249.402 1036.11 243.418C1036.11 237.395 1039.63 233.093 1045.45 233.093C1048.15 233.093 1050.54 234.227 1051.75 236.144V223.903H1056.48V253H1052.1L1051.79 249.989C1050.62 252.218 1048.11 253.508 1045.18 253.508ZM1046.24 249.128C1049.56 249.128 1051.71 246.742 1051.71 243.262C1051.71 239.781 1049.56 237.356 1046.24 237.356C1042.91 237.356 1040.88 239.82 1040.88 243.262C1040.88 246.703 1042.91 249.128 1046.24 249.128ZM1064.23 229.808C1062.59 229.808 1061.3 228.517 1061.3 226.914C1061.3 225.31 1062.59 224.059 1064.23 224.059C1065.8 224.059 1067.09 225.31 1067.09 226.914C1067.09 228.517 1065.8 229.808 1064.23 229.808ZM1061.85 253V233.68H1066.62V253H1061.85ZM1078.51 253H1073.74V237.669H1070.02V233.68H1073.74V227.657H1078.51V233.68H1082.26V237.669H1078.51V253ZM1083.94 261.956V257.967H1086.79C1088.67 257.967 1089.84 257.537 1090.67 255.268L1091.21 253.821L1083.43 233.68H1088.48L1093.44 247.759L1098.68 233.68H1103.61L1094.15 257.302C1092.7 260.9 1090.67 262.386 1087.5 262.386C1086.17 262.386 1084.99 262.23 1083.94 261.956Z" fill="black"/>
</svg>
